<svg xmlns="http://www.w3.org/2000/svg" width="113" height="44" viewBox="0 0 113 44" fill="none">
    <path d="M8.50586 43.6882V29.9059H12.8724V43.6882H8.50586ZM17.6372 43.6882V35.8334C17.6372 35.1348 17.4096 34.5614 16.9568 34.1177C16.504 33.674 15.9374 33.451 15.2548 33.451C14.802 33.451 14.3947 33.5511 14.0352 33.7491C13.6756 33.9471 13.3935 34.2269 13.1841 34.5865C12.9748 34.9437 12.8724 35.3624 12.8724 35.8334L11.2 35.012C11.2 33.9334 11.4412 32.9891 11.9236 32.1768C12.4059 31.3645 13.0681 30.7342 13.9077 30.2904C14.7474 29.8467 15.6985 29.6237 16.7566 29.6237C17.7578 29.6237 18.6566 29.8627 19.4507 30.3337C20.2448 30.8047 20.8683 31.4418 21.3211 32.2473C21.7739 33.0505 22.0014 33.9243 22.0014 34.8686V43.6859H17.6349L17.6372 43.6882Z" fill="black"/>
    <path d="M31.294 43.9999C29.8582 43.9999 28.5726 43.6791 27.4372 43.0351C26.3017 42.3935 25.4052 41.5242 24.7431 40.4275C24.0809 39.3307 23.751 38.102 23.751 36.7413C23.751 35.3806 24.0764 34.1883 24.7294 33.112C25.3825 32.0334 26.2744 31.1779 27.4099 30.5453C28.5453 29.9127 29.8378 29.5964 31.294 29.5964C32.7503 29.5964 33.9927 29.9082 35.1372 30.5316C36.2818 31.1551 37.1828 32.0129 37.845 33.0983C38.5071 34.1837 38.8371 35.3988 38.8371 36.7413C38.8371 38.0838 38.5071 39.3535 37.845 40.4411C37.1828 41.5265 36.2863 42.3935 35.1509 43.0351C34.0154 43.6791 32.7321 43.9999 31.294 43.9999ZM31.294 40.0293C31.8993 40.0293 32.4386 39.8973 32.9096 39.6311C33.3806 39.3671 33.7469 38.9849 34.0018 38.482C34.2566 37.9814 34.3841 37.4103 34.3841 36.7663C34.3841 36.1224 34.2521 35.5899 33.9881 35.1075C33.7219 34.6251 33.3601 34.2474 32.8959 33.9744C32.4317 33.699 31.8993 33.5625 31.294 33.5625C30.6888 33.5625 30.1495 33.699 29.6785 33.9744C29.2052 34.2474 28.8366 34.6297 28.5726 35.1235C28.3064 35.6127 28.1744 36.1633 28.1744 36.7663C28.1744 37.4103 28.3064 37.9814 28.5726 38.482C28.8366 38.9826 29.2052 39.3671 29.6785 39.6311C30.1518 39.8973 30.691 40.0293 31.294 40.0293Z" fill="black"/>
    <path d="M42.1366 33.6216V29.9059H48.162V33.6216H42.1366ZM40.6758 43.6882V24.2082H45.0423V43.6882H40.6758Z" fill="black"/>
    <path d="M55.1583 43.9726C53.9114 43.9726 52.785 43.6563 51.7838 43.0237C50.7827 42.3912 49.9931 41.5402 49.4174 40.4707C48.8394 39.4013 48.5527 38.1794 48.5527 36.8004C48.5527 35.4215 48.8394 34.186 49.4174 33.1006C49.9931 32.0152 50.7781 31.1619 51.7702 30.5476C52.7646 29.9332 53.8932 29.626 55.1606 29.626C56.0867 29.626 56.924 29.8058 57.6681 30.1653C58.4167 30.5248 59.0243 31.0208 59.4976 31.6534C59.9708 32.286 60.2348 33.0096 60.2917 33.8219V39.7744C60.2325 40.589 59.9731 41.3103 59.5112 41.9429C59.047 42.5755 58.4418 43.0738 57.6977 43.431C56.9491 43.7883 56.1049 43.9703 55.1606 43.9703L55.1583 43.9726ZM56.0662 40.0293C56.9923 40.0293 57.7341 39.7289 58.2916 39.1214C58.8491 38.5161 59.1289 37.7311 59.1289 36.7686C59.1289 36.1451 59.0061 35.5922 58.7603 35.1098C58.5146 34.6274 58.1551 34.2497 57.6818 33.9766C57.2085 33.7013 56.6692 33.5648 56.0662 33.5648C55.4632 33.5648 54.9558 33.7013 54.4939 33.9766C54.0297 34.2497 53.6611 34.632 53.388 35.1257C53.1127 35.6149 52.9762 36.1747 52.9762 36.7982C52.9762 37.4216 53.1127 37.9791 53.388 38.4706C53.6611 38.9621 54.0297 39.3444 54.4939 39.6197C54.9558 39.8927 55.4814 40.0293 56.0662 40.0293ZM58.9583 43.6882V39.9724L59.6113 36.6002L58.9583 33.2826V29.9082H63.2406V43.6904H58.9583V43.6882Z" fill="black"/>
    <path d="M65.7236 43.6882V29.9059H70.0879V43.6882H65.7236ZM70.0902 36.1451L68.2767 34.7275C68.6362 33.1029 69.246 31.8446 70.1061 30.9572C70.9662 30.0675 72.1426 29.6237 73.6353 29.6237C74.2975 29.6237 74.8777 29.7239 75.3806 29.9218C75.8812 30.1198 76.3203 30.4179 76.7003 30.8161L74.1177 34.1041C73.9493 33.9152 73.7218 33.7628 73.4396 33.649C73.1552 33.5375 72.8344 33.4806 72.4748 33.4806C71.7376 33.4806 71.1551 33.7013 70.7296 34.1473C70.3041 34.591 70.0902 35.2577 70.0902 36.1451Z" fill="black"/>
    <path d="M79.9316 28.0378C79.2694 28.0378 78.7142 27.8012 78.2591 27.3279C77.8063 26.8546 77.5811 26.288 77.5811 25.6258C77.5811 24.9637 77.8063 24.3789 78.2591 23.9238C78.7142 23.471 79.2717 23.2435 79.9316 23.2435C80.6324 23.2435 81.1944 23.4687 81.6199 23.9238C82.0454 24.3766 82.2593 24.9455 82.2593 25.6258C82.2593 26.3062 82.0454 26.8546 81.6199 27.3279C81.1944 27.8012 80.6324 28.0378 79.9316 28.0378ZM77.7472 43.6882V29.9059H82.1137V43.6882H77.7472Z" fill="black"/>
    <path d="M90.3507 43.9726C89.1038 43.9726 87.9797 43.6563 86.9785 43.0237C85.9773 42.3912 85.1877 41.5402 84.6098 40.4707C84.0341 39.4013 83.7451 38.1794 83.7451 36.8004C83.7451 35.4215 84.0341 34.186 84.6098 33.1006C85.1855 32.0152 85.9705 31.1619 86.9626 30.5476C87.9547 29.9332 89.0856 29.626 90.3507 29.626C91.2768 29.626 92.1142 29.8058 92.8605 30.1653C93.6068 30.5248 94.2167 31.0208 94.6899 31.6534C95.1632 32.286 95.4272 33.0096 95.4841 33.8219V39.7744C95.4272 40.589 95.1678 41.3103 94.7059 41.9429C94.2417 42.5755 93.6364 43.0738 92.8901 43.431C92.1437 43.7883 91.2995 43.9703 90.353 43.9703L90.3507 43.9726ZM91.2586 40.0293C92.1847 40.0293 92.9265 39.7289 93.484 39.1214C94.0414 38.5161 94.3213 37.7311 94.3213 36.7686C94.3213 36.1451 94.1984 35.5922 93.9527 35.1098C93.7069 34.6274 93.3474 34.2497 92.8764 33.9766C92.4031 33.7013 91.8639 33.5648 91.2609 33.5648C90.6579 33.5648 90.1505 33.7013 89.6863 33.9766C89.2244 34.2497 88.8557 34.632 88.5804 35.1257C88.3074 35.6149 88.1708 36.1747 88.1708 36.7982C88.1708 37.4216 88.3074 37.9791 88.5804 38.4706C88.8557 38.9621 89.2244 39.3444 89.6863 39.6197C90.1505 39.8927 90.6761 40.0293 91.2609 40.0293H91.2586ZM94.1507 43.6882V39.9724L94.8037 36.6002L94.1507 33.2826V29.9082H98.433V43.6904H94.1507V43.6882Z" fill="black"/>
    <path d="M101.999 33.6216V29.9059H108.024V33.6216H101.999ZM100.54 43.6882V24.2082H104.907V43.6882H100.54Z" fill="black"/>
    <path d="M0 20.5857V6.80344H4.36655V20.5834H0V20.5857ZM8.84687 20.5857V12.533C8.84687 11.8526 8.63526 11.3179 8.20748 10.9311C7.78197 10.5442 7.25862 10.3486 6.63516 10.3486C6.20055 10.3486 5.81372 10.4396 5.47241 10.6171C5.1311 10.7968 4.8626 11.0471 4.66463 11.368C4.46667 11.6888 4.36655 12.0756 4.36655 12.5307L2.69411 11.7662C2.69411 10.6876 2.93531 9.75695 3.4177 8.9742C3.90009 8.18918 4.54176 7.58391 5.34499 7.16068C6.14821 6.73518 7.06976 6.52129 8.10963 6.52129C9.05394 6.52129 9.9095 6.73973 10.674 7.17434C11.4409 7.60894 12.053 8.21421 12.5171 8.98785C12.9791 9.76378 13.2112 10.6899 13.2112 11.7662V20.5834H8.8446L8.84687 20.5857ZM17.6369 20.5857V12.533C17.6369 11.8526 17.4252 11.3179 16.9975 10.9311C16.572 10.5442 16.0577 10.3486 15.4524 10.3486C15.036 10.3486 14.6538 10.4396 14.3034 10.6171C13.9529 10.7968 13.6844 11.0471 13.4956 11.368C13.3067 11.6888 13.2112 12.0756 13.2112 12.5307L10.6877 12.1894C10.7446 11.0175 11.029 10.0072 11.5387 9.15624C12.0484 8.30523 12.7401 7.65445 13.6094 7.19937C14.4786 6.74656 15.4524 6.51901 16.5287 6.51901C17.605 6.51901 18.5038 6.742 19.3366 7.18571C20.1671 7.62942 20.8202 8.25972 21.2935 9.07205C21.7668 9.88437 22.0011 10.8674 22.0011 12.021V20.5834H17.6346L17.6369 20.5857Z" fill="black"/>
    <path d="M31.294 20.8975C29.8582 20.8975 28.5726 20.5766 27.4372 19.9327C26.3017 19.291 25.4052 18.4218 24.7431 17.3251C24.0809 16.2283 23.751 14.9996 23.751 13.6389C23.751 12.2781 24.0764 11.0881 24.7294 10.0095C25.3825 8.93099 26.2744 8.0777 27.4099 7.44286C28.5453 6.81029 29.8378 6.49173 31.294 6.49173C32.7503 6.49173 33.9927 6.80346 35.1372 7.42693C36.2818 8.0504 37.1828 8.90596 37.845 9.99362C38.5071 11.0813 38.8371 12.2941 38.8371 13.6366C38.8371 14.9791 38.5071 16.2511 37.845 17.3364C37.1828 18.4241 36.2863 19.2888 35.1509 19.9304C34.0154 20.5744 32.7321 20.8952 31.294 20.8952V20.8975ZM31.294 16.9269C31.8993 16.9269 32.4386 16.7949 32.9096 16.5287C33.3806 16.2647 33.7469 15.8824 34.0018 15.3796C34.2566 14.879 34.3841 14.3078 34.3841 13.6639C34.3841 13.0199 34.2521 12.4875 33.9881 12.0051C33.7219 11.5227 33.3601 11.145 32.8959 10.8719C32.4317 10.5966 31.8993 10.4601 31.294 10.4601C30.6888 10.4601 30.1495 10.5966 29.6785 10.8719C29.2052 11.145 28.8366 11.5273 28.5726 12.021C28.3064 12.5125 28.1744 13.0609 28.1744 13.6662C28.1744 14.3078 28.3064 14.8812 28.5726 15.3818C28.8366 15.8824 29.2052 16.267 29.6785 16.5309C30.1518 16.7972 30.691 16.9291 31.294 16.9291V16.9269Z" fill="black"/>
    <path d="M40.6895 20.5858V0H45.056V10.1803L44.3483 13.4979L44.9991 16.8723V20.5858H40.6895ZM48.6853 20.868C47.7387 20.868 46.8809 20.6746 46.105 20.2855C45.3291 19.8986 44.701 19.3776 44.2186 18.7268C43.7363 18.0737 43.4564 17.3433 43.3813 16.5287V10.7173C43.4564 9.88675 43.7385 9.15406 44.2323 8.51921C44.7238 7.88664 45.3564 7.39515 46.1323 7.04473C46.9059 6.69432 47.7569 6.52138 48.683 6.52138C49.9687 6.52138 51.1155 6.83312 52.128 7.45659C53.1406 8.08005 53.937 8.93107 54.5241 10.0096C55.1111 11.0882 55.4047 12.3169 55.4047 13.6958C55.4047 15.0747 55.1157 16.2989 54.54 17.3661C53.9643 18.4355 53.1634 19.2843 52.144 19.9191C51.1223 20.5517 49.9709 20.868 48.6853 20.868ZM47.8935 16.9269C48.4783 16.9269 49.0039 16.7904 49.4658 16.5151C49.9277 16.242 50.2963 15.8598 50.5716 15.366C50.8447 14.8745 50.9812 14.317 50.9812 13.6935C50.9812 13.0701 50.8447 12.5126 50.5716 12.0211C50.2963 11.5296 49.9277 11.1473 49.4658 10.872C49.0016 10.5967 48.4783 10.4602 47.8935 10.4602C47.3087 10.4602 46.7489 10.5967 46.2779 10.872C45.8046 11.1451 45.4406 11.5273 45.1857 12.0211C44.9309 12.5126 44.8034 13.061 44.8034 13.6662C44.8034 14.3079 44.9354 14.8813 45.1994 15.3819C45.4633 15.8825 45.8274 16.2671 46.2916 16.531C46.7558 16.7972 47.2882 16.9292 47.8935 16.9292V16.9269Z" fill="black"/>
    <path d="M59.3479 4.9331C58.6858 4.9331 58.1306 4.69645 57.6755 4.22316C57.2227 3.74987 56.9951 3.18329 56.9951 2.52114C56.9951 1.85899 57.2227 1.2742 57.6755 0.819117C58.1306 0.366306 58.688 0.138763 59.3479 0.138763C60.0465 0.138763 60.6108 0.364031 61.0363 0.819117C61.4618 1.27193 61.6757 1.84079 61.6757 2.52114C61.6757 3.20149 61.4618 3.74987 61.0363 4.22316C60.6108 4.69645 60.0465 4.9331 59.3479 4.9331ZM57.1658 20.5858V6.8035H61.5323V20.5835H57.1658V20.5858Z" fill="black"/>
    <path d="M64.6475 20.5858V0H69.014V20.5858H64.6475Z" fill="black"/>
    <path d="M110.19 43.6883C111.442 43.6883 112.456 42.6736 112.456 41.4219C112.456 40.1703 111.442 39.1556 110.19 39.1556C108.939 39.1556 107.924 40.1703 107.924 41.4219C107.924 42.6736 108.939 43.6883 110.19 43.6883Z" fill="#7C94E0"/>
</svg>
