<svg xmlns="http://www.w3.org/2000/svg" width="33" height="33" viewBox="0 0 33 33" fill="none">
  <path d="M17.9138 26.4241L7.96343 28.272C6.0549 28.6264 5.10065 28.8036 4.5509 28.2538C4.00115 27.704 4.17835 26.7497 4.53277 24.841L6.3805 14.8902C6.67679 13.2947 6.82494 12.4968 7.35089 12.0148C7.87685 11.5327 8.83871 11.4386 10.7625 11.2505C12.6166 11.0691 14.3713 10.4335 16.2002 8.60449L24.2002 16.6052C22.3713 18.4342 21.7353 20.1877 21.5537 22.042C21.3653 23.966 21.271 24.928 20.789 25.4538C20.307 25.9797 19.5093 26.1278 17.9138 26.4241Z" stroke="white" stroke-width="2" stroke-linejoin="round"/>
  <path d="M14.867 20.8851C14.0426 20.2961 13.439 20.4395 12.9021 19.9027M12.9021 19.9027C12.3653 19.3659 12.6224 18.624 11.9197 17.9377M12.9021 19.9027L5.53369 27.2711" stroke="white" stroke-width="2" stroke-linecap="round"/>
  <path d="M16.2002 8.60449C17.1499 7.20329 18.4363 4.84609 20.3422 4.61913C21.6431 4.46421 22.721 5.54199 24.8765 7.69753L25.1071 7.92819C27.2627 10.0837 28.3405 11.1615 28.1855 12.4625C27.9586 14.3684 25.6014 15.6548 24.2002 16.6045" stroke="white" stroke-width="2" stroke-linejoin="round"/>
</svg>
