<svg xmlns="http://www.w3.org/2000/svg" width="36" height="37" viewBox="0 0 36 37" fill="none">
  <path d="M14.5103 19.288L16.4121 21.1898L21.9336 15.6682" stroke="white" stroke-width="1.93021" stroke-linecap="round" stroke-linejoin="round"/>
  <path d="M17.3531 3.78552C17.8451 3.33412 18.6007 3.33412 19.0928 3.78552L20.8083 5.35918C21.1316 5.65574 21.5836 5.76717 22.0077 5.65482L24.258 5.05862C24.9035 4.8876 25.5725 5.23875 25.7985 5.86712L26.5861 8.05774C26.7345 8.47057 27.0831 8.77933 27.5108 8.87692L29.7803 9.39477C30.4314 9.54331 30.8606 10.1652 30.7686 10.8266L30.448 13.1323C30.3876 13.5668 30.5527 14.0022 30.8861 14.2873L32.655 15.8006C33.1625 16.2347 33.2536 16.9848 32.8648 17.5277L31.5093 19.4203C31.2539 19.777 31.1978 20.2392 31.3604 20.6466L32.2235 22.8086C32.4711 23.4288 32.2032 24.1353 31.6066 24.4353L29.5269 25.4813C29.135 25.6784 28.8705 26.0616 28.8252 26.4979L28.5846 28.8134C28.5157 29.4776 27.9501 29.9786 27.2824 29.9671L24.9549 29.9267C24.5162 29.9191 24.1039 30.1355 23.861 30.5008L22.572 32.4393C22.2023 32.9953 21.4686 33.1761 20.8828 32.8556L18.8406 31.7382C18.4558 31.5277 17.9901 31.5277 17.6053 31.7382L15.5631 32.8556C14.9773 33.1761 14.2436 32.9953 13.8739 32.4393L12.5849 30.5008C12.342 30.1355 11.9297 29.9191 11.491 29.9267L9.16347 29.9671C8.49582 29.9786 7.93024 29.4776 7.86125 28.8134L7.62074 26.4979C7.57542 26.0616 7.31092 25.6784 6.91899 25.4813L4.83929 24.4353C4.24273 24.1353 3.97479 23.4288 4.22237 22.8086L5.08545 20.6466C5.2481 20.2392 5.19198 19.777 4.93655 19.4203L3.58114 17.5277C3.19234 16.9848 3.28342 16.2347 3.79085 15.8006L5.5598 14.2873C5.89317 14.0022 6.05828 13.5668 5.99786 13.1323L5.67725 10.8266C5.58529 10.1652 6.01452 9.54331 6.66555 9.39477L8.93513 8.87692C9.36284 8.77933 9.71136 8.47057 9.85979 8.05774L10.6474 5.86713C10.8734 5.23875 11.5424 4.8876 12.1879 5.05862L14.4382 5.65482C14.8622 5.76717 15.3143 5.65574 15.6376 5.35918L17.3531 3.78552Z" stroke="white" stroke-width="1.93021" stroke-linecap="round" stroke-linejoin="round"/>
  <circle cx="18.3923" cy="18.4306" r="9.22532" stroke="white" stroke-width="1.93021" stroke-linecap="round" stroke-linejoin="round"/>
</svg>
