<svg xmlns="http://www.w3.org/2000/svg" width="25" height="24" viewBox="0 0 25 24" fill="none">
  <path d="M2.7998 12C2.7998 8.22876 2.7998 6.34315 3.97138 5.17157C5.14295 4 7.02857 4 10.7998 4H14.7998C18.571 4 20.4567 4 21.6282 5.17157C22.7998 6.34315 22.7998 8.22876 22.7998 12C22.7998 15.7712 22.7998 17.6569 21.6282 18.8284C20.4567 20 18.571 20 14.7998 20H10.7998C7.02857 20 5.14295 20 3.97138 18.8284C2.7998 17.6569 2.7998 15.7712 2.7998 12Z" stroke="white" stroke-width="1.5"/>
  <path d="M6.7998 8L8.9587 9.79908C10.7953 11.3296 11.7137 12.0949 12.7998 12.0949C13.886 12.0949 14.8043 11.3296 16.6409 9.79908L18.7998 8" stroke="white" stroke-width="1.5" stroke-linecap="round"/>
</svg>
