<svg width="25" height="25" viewBox="0 0 25 25" fill="none" xmlns="http://www.w3.org/2000/svg">
<rect x="0.799805" y="0.466309" width="24" height="24" rx="12" fill="url(#paint0_radial_4958_66723)"/>
<path fill-rule="evenodd" clip-rule="evenodd" d="M4.78516 12.225C4.78516 7.75904 8.28536 4.45117 12.7994 4.45117C17.3134 4.45117 20.8136 7.76104 20.8136 12.227C20.8136 16.6929 17.3134 20.0008 12.7994 20.0008C11.9879 20.0008 11.2106 19.8926 10.4793 19.6922C10.337 19.6541 10.1847 19.6642 10.0505 19.7243L8.45967 20.4255C8.04293 20.6098 7.5741 20.3133 7.56008 19.8585L7.516 18.432C7.51199 18.2557 7.43185 18.0914 7.30162 17.9752C5.74285 16.5807 4.78516 14.5611 4.78516 12.225ZM10.3411 10.7645L7.98689 14.4991C7.76049 14.8577 8.20127 15.2604 8.53787 15.004L11.0663 13.0846C11.2366 12.9544 11.4731 12.9544 11.6454 13.0826L13.5187 14.4871C14.0817 14.9078 14.8831 14.7616 15.2578 14.1665L17.6139 10.4339C17.8383 10.0752 17.3976 9.67053 17.061 9.92698L14.5325 11.8464C14.3622 11.9766 14.1258 11.9766 13.9535 11.8484L12.0801 10.4439C11.5171 10.0232 10.7157 10.1694 10.3411 10.7645Z" fill="white"/>
<defs>
<radialGradient id="paint0_radial_4958_66723" cx="0" cy="0" r="1" gradientUnits="userSpaceOnUse" gradientTransform="translate(5.4198 24.3375) scale(26.1504 26.1481)">
<stop stop-color="#0099FF"/>
<stop offset="0.6098" stop-color="#A033FF"/>
<stop offset="0.9348" stop-color="#FF5280"/>
<stop offset="1" stop-color="#FF7061"/>
</radialGradient>
</defs>
</svg>
