<svg width="25" height="25" viewBox="0 0 25 25" fill="none" xmlns="http://www.w3.org/2000/svg">
<rect x="0.799805" y="0.466309" width="24" height="24" rx="12" fill="url(#paint0_linear_4958_66728)"/>
<path d="M12.8015 6.56443C14.7254 6.56443 14.9513 6.57301 15.7117 6.60731C16.4149 6.63876 16.7951 6.75596 17.0495 6.85601C17.3868 6.98751 17.627 7.14188 17.8785 7.39344C18.1301 7.645 18.2873 7.88513 18.4159 8.22245C18.5131 8.47687 18.6332 8.85707 18.6646 9.5603C18.699 10.3207 18.7075 10.5465 18.7075 12.4704C18.7075 14.3943 18.699 14.6201 18.6646 15.3805C18.6332 16.0838 18.516 16.464 18.4159 16.7184C18.2844 17.0557 18.1301 17.2958 17.8785 17.5474C17.627 17.7989 17.3868 17.9562 17.0495 18.0848C16.7951 18.182 16.4149 18.3021 15.7117 18.3335C14.9513 18.3678 14.7254 18.3764 12.8015 18.3764C10.8777 18.3764 10.6518 18.3678 9.89143 18.3335C9.1882 18.3021 8.808 18.1849 8.55358 18.0848C8.21626 17.9533 7.97613 17.7989 7.72457 17.5474C7.47301 17.2958 7.31578 17.0557 7.18714 16.7184C7.08995 16.464 6.96988 16.0838 6.93844 15.3805C6.90413 14.6201 6.89556 14.3943 6.89556 12.4704C6.89556 10.5465 6.90413 10.3207 6.93844 9.5603C6.96988 8.85707 7.08709 8.47687 7.18714 8.22245C7.31864 7.88513 7.47301 7.645 7.72457 7.39344C7.97613 7.14188 8.21626 6.98465 8.55358 6.85601C8.808 6.75882 9.1882 6.63876 9.89143 6.60731C10.6518 6.57015 10.8805 6.56443 12.8015 6.56443ZM12.8015 5.2666C10.8462 5.2666 10.6004 5.27518 9.8314 5.30948C9.06528 5.34379 8.54214 5.46671 8.08476 5.64394C7.61022 5.8269 7.21001 6.0756 6.8098 6.47581C6.40959 6.87602 6.16374 7.27909 5.97793 7.75077C5.80069 8.20816 5.67777 8.73129 5.64347 9.50027C5.60916 10.2664 5.60059 10.5122 5.60059 12.4676C5.60059 14.4229 5.60916 14.6687 5.64347 15.4377C5.67777 16.2038 5.80069 16.727 5.97793 17.1872C6.16088 17.6617 6.40959 18.0619 6.8098 18.4622C7.21001 18.8624 7.61308 19.1082 8.08476 19.294C8.54214 19.4713 9.06528 19.5942 9.83426 19.6285C10.6032 19.6628 10.8462 19.6714 12.8044 19.6714C14.7626 19.6714 15.0056 19.6628 15.7745 19.6285C16.5407 19.5942 17.0638 19.4713 17.524 19.294C17.9986 19.1111 18.3988 18.8624 18.799 18.4622C19.1992 18.0619 19.4451 17.6589 19.6309 17.1872C19.8081 16.7298 19.931 16.2067 19.9653 15.4377C19.9996 14.6687 20.0082 14.4257 20.0082 12.4676C20.0082 10.5094 19.9996 10.2664 19.9653 9.49741C19.931 8.73129 19.8081 8.20816 19.6309 7.74791C19.4479 7.27338 19.1992 6.87317 18.799 6.47295C18.3988 6.07274 17.9957 5.8269 17.524 5.64109C17.0667 5.46385 16.5435 5.34093 15.7745 5.30662C15.0027 5.27518 14.7569 5.2666 12.8015 5.2666Z" fill="white"/>
<path d="M12.8016 8.771C10.7606 8.771 9.10254 10.4262 9.10254 12.4701C9.10254 14.514 10.7577 16.1692 12.8016 16.1692C14.8456 16.1692 16.5007 14.514 16.5007 12.4701C16.5007 10.4262 14.8456 8.771 12.8016 8.771ZM12.8016 14.8685C11.4752 14.8685 10.4004 13.7937 10.4004 12.4672C10.4004 11.1408 11.4752 10.066 12.8016 10.066C14.1281 10.066 15.2029 11.1408 15.2029 12.4672C15.2029 13.7937 14.1281 14.8685 12.8016 14.8685Z" fill="white"/>
<path d="M16.6468 9.48644C17.1237 9.48644 17.5104 9.09981 17.5104 8.62286C17.5104 8.14592 17.1237 7.75928 16.6468 7.75928C16.1698 7.75928 15.7832 8.14592 15.7832 8.62286C15.7832 9.09981 16.1698 9.48644 16.6468 9.48644Z" fill="white"/>
<defs>
<linearGradient id="paint0_linear_4958_66728" x1="21.4902" y1="-1.91879" x2="12.7998" y2="24.4663" gradientUnits="userSpaceOnUse">
<stop stop-color="#AA55FF"/>
<stop offset="0.465067" stop-color="#FF6D87"/>
<stop offset="1" stop-color="#FFBE17"/>
</linearGradient>
</defs>
</svg>
