<svg xmlns="http://www.w3.org/2000/svg" width="33" height="32" viewBox="0 0 33 32" fill="none">
  <path d="M15.0674 28.4713L15.9279 28.9806L15.0674 28.4713ZM15.4076 27.8965L14.547 27.3871H14.547L15.4076 27.8965ZM12.4471 27.8965L13.3077 27.3871L13.3077 27.3871L12.4471 27.8965ZM12.7873 28.4713L11.9268 28.9806V28.9806L12.7873 28.4713ZM3.83581 22.7283L4.75969 22.3456L3.83581 22.7283ZM9.06133 25.9466L9.0933 24.9471H9.0933L9.06133 25.9466ZM6.67461 25.5671L6.29193 26.491H6.29193L6.67461 25.5671ZM24.0189 22.7283L24.9428 23.111V23.111L24.0189 22.7283ZM18.7934 25.9466L18.7614 24.9471L18.7934 25.9466ZM21.1801 25.5671L21.5628 26.491L21.1801 25.5671ZM21.9135 8.90483L22.436 8.0522V8.0522L21.9135 8.90483ZM23.6453 10.6366L24.4979 10.1141V10.1141L23.6453 10.6366ZM5.94122 8.90483L5.41872 8.0522V8.0522L5.94122 8.90483ZM4.20949 10.6366L3.35685 10.1141L3.35685 10.1141L4.20949 10.6366ZM11.195 26.2579L10.6859 27.1186L11.195 26.2579ZM15.9279 28.9806L16.2681 28.4059L14.547 27.3871L14.2068 27.9619L15.9279 28.9806ZM11.5866 28.4059L11.9268 28.9806L13.6479 27.9619L13.3077 27.3871L11.5866 28.4059ZM14.2068 27.9619C14.1505 28.057 14.0522 28.1136 13.9274 28.1136C13.8025 28.1136 13.7042 28.057 13.6479 27.9619L11.9268 28.9806C12.8209 30.4912 15.0338 30.4912 15.9279 28.9806L14.2068 27.9619ZM12.3537 9.13187H15.501V7.13187H12.3537V9.13187ZM23.4182 17.0491V18.0982H25.4182V17.0491H23.4182ZM4.43652 18.0982V17.0491H2.43652V18.0982H4.43652ZM2.43652 18.0982C2.43652 19.3066 2.43598 20.2629 2.48875 21.0364C2.54214 21.8188 2.6534 22.4868 2.91193 23.111L4.75969 22.3456C4.61893 22.0058 4.53055 21.5808 4.48411 20.9002C4.43707 20.2106 4.43652 19.3339 4.43652 18.0982H2.43652ZM9.0933 24.9471C8.05475 24.9139 7.49264 24.8235 7.0573 24.6432L6.29193 26.491C7.07751 26.8164 7.94332 26.9114 9.02936 26.9461L9.0933 24.9471ZM2.91193 23.111C3.5458 24.6413 4.76162 25.8571 6.29193 26.491L7.0573 24.6432C6.01705 24.2123 5.19057 23.3859 4.75969 22.3456L2.91193 23.111ZM23.4182 18.0982C23.4182 19.3339 23.4177 20.2106 23.3706 20.9002C23.3242 21.5808 23.2358 22.0058 23.0951 22.3456L24.9428 23.111C25.2013 22.4868 25.3126 21.8188 25.366 21.0364C25.4188 20.2629 25.4182 19.3066 25.4182 18.0982H23.4182ZM18.8253 26.9461C19.9114 26.9114 20.7772 26.8164 21.5628 26.491L20.7975 24.6432C20.3621 24.8235 19.8 24.9139 18.7614 24.9471L18.8253 26.9461ZM23.0951 22.3456C22.6642 23.3859 21.8377 24.2123 20.7974 24.6432L21.5628 26.491C23.0931 25.8571 24.3089 24.6413 24.9428 23.111L23.0951 22.3456ZM15.501 9.13187C17.2374 9.13187 18.4695 9.13292 19.4274 9.224C20.3704 9.31366 20.9439 9.48346 21.391 9.75747L22.436 8.0522C21.6218 7.55324 20.7061 7.33656 19.6167 7.23298C18.5422 7.13081 17.1987 7.13187 15.501 7.13187V9.13187ZM25.4182 17.0491C25.4182 15.3514 25.4193 14.0079 25.3171 12.9334C25.2135 11.844 24.9968 10.9283 24.4979 10.1141L22.7926 11.1591C23.0666 11.6062 23.2364 12.1797 23.3261 13.1227C23.4172 14.0806 23.4182 15.3127 23.4182 17.0491H25.4182ZM21.391 9.75747C21.9623 10.1075 22.4426 10.5878 22.7926 11.1591L24.4979 10.1141C23.9829 9.27372 23.2764 8.56717 22.436 8.0522L21.391 9.75747ZM12.3537 7.13187C10.6561 7.13187 9.31256 7.13081 8.23805 7.23298C7.14865 7.33656 6.23293 7.55324 5.41872 8.0522L6.46372 9.75747C6.91087 9.48346 7.48436 9.31366 8.42736 9.224C9.38524 9.13292 10.6173 9.13187 12.3537 9.13187V7.13187ZM4.43652 17.0491C4.43652 15.3127 4.43758 14.0806 4.52865 13.1227C4.61832 12.1797 4.78811 11.6062 5.06213 11.1591L3.35685 10.1141C2.8579 10.9283 2.64121 11.844 2.53763 12.9334C2.43547 14.0079 2.43652 15.3514 2.43652 17.0491H4.43652ZM5.41872 8.0522C4.57836 8.56717 3.87182 9.27372 3.35685 10.1141L5.06213 11.1591C5.41219 10.5878 5.89248 10.1075 6.46372 9.75747L5.41872 8.0522ZM13.3077 27.3871C13.0445 26.9425 12.8131 26.5496 12.5885 26.2404C12.3521 25.9149 12.0806 25.6199 11.7041 25.3972L10.6859 27.1186C10.7437 27.1528 10.8256 27.2165 10.9704 27.4158C11.127 27.6314 11.3045 27.9293 11.5866 28.4059L13.3077 27.3871ZM9.02936 26.9461C9.6138 26.9648 9.98633 26.9777 10.2691 27.0122C10.5361 27.0447 10.6342 27.088 10.6859 27.1186L11.7041 25.3972C11.3215 25.1709 10.9193 25.0766 10.5112 25.0269C10.119 24.979 9.64179 24.9647 9.0933 24.9471L9.02936 26.9461ZM16.2681 28.4059C16.5502 27.9293 16.7277 27.6314 16.8843 27.4158C17.0291 27.2165 17.111 27.1528 17.1688 27.1186L16.1506 25.3972C15.7741 25.6199 15.5026 25.9149 15.2662 26.2404C15.0416 26.5496 14.8102 26.9425 14.547 27.3871L16.2681 28.4059ZM18.7614 24.9471C18.2129 24.9647 17.7358 24.979 17.3435 25.0269C16.9354 25.0766 16.5332 25.1709 16.1506 25.3972L17.1688 27.1186C17.2205 27.088 17.3186 27.0447 17.5856 27.0122C17.8684 26.9777 18.2409 26.9648 18.8253 26.9461L18.7614 24.9471Z" fill="white"/>
  <path d="M29.2895 16.5706L30.2134 16.9533V16.9533L29.2895 16.5706ZM26.6281 19.232L27.0108 20.1559H27.0108L26.6281 19.232ZM27.3157 3.6111L26.7932 4.46374L27.3157 3.6111ZM28.9392 5.23461L29.7918 4.71211V4.71211L28.9392 5.23461ZM12.3417 3.6111L11.8192 2.75846L12.3417 3.6111ZM10.7182 5.23461L9.86551 4.71211L9.86551 4.71211L10.7182 5.23461ZM18.3534 3.88644H21.3039V1.88644H18.3534V3.88644ZM28.6638 11.2464V12.2299H30.6638V11.2464H28.6638ZM28.6638 12.2299C28.6638 13.3892 28.6633 14.2087 28.6194 14.8525C28.5761 15.4874 28.4939 15.8782 28.3656 16.1879L30.2134 16.9533C30.4594 16.3593 30.5645 15.7254 30.6147 14.9887C30.6644 14.2609 30.6638 13.3619 30.6638 12.2299H28.6638ZM28.3656 16.1879C27.968 17.1478 27.2054 17.9105 26.2454 18.3081L27.0108 20.1559C28.4608 19.5553 29.6128 18.4032 30.2134 16.9533L28.3656 16.1879ZM21.3039 3.88644C22.933 3.88644 24.0846 3.8875 24.979 3.97254C25.8585 4.05616 26.3855 4.21388 26.7932 4.46374L27.8382 2.75846C27.0634 2.28367 26.1942 2.07906 25.1683 1.98152C24.1573 1.88539 22.8943 1.88644 21.3039 1.88644V3.88644ZM30.6638 11.2464C30.6638 9.65599 30.6649 8.39299 30.5688 7.38198C30.4712 6.35609 30.2666 5.48691 29.7918 4.71211L28.0865 5.75711C28.3364 6.16484 28.4941 6.6918 28.5777 7.57129C28.6628 8.46566 28.6638 9.61727 28.6638 11.2464H30.6638ZM26.7932 4.46374C27.3203 4.78677 27.7635 5.22997 28.0865 5.75711L29.7918 4.71211C29.3039 3.91586 28.6344 3.2464 27.8382 2.75846L26.7932 4.46374ZM18.3534 1.88644C16.763 1.88644 15.5 1.88539 14.489 1.98152C13.4631 2.07906 12.5939 2.28367 11.8192 2.75846L12.8642 4.46374C13.2719 4.21388 13.7988 4.05616 14.6783 3.97254C15.5727 3.8875 16.7243 3.88644 18.3534 3.88644V1.88644ZM11.8192 2.75846C11.0229 3.2464 10.3535 3.91587 9.86551 4.71211L11.5708 5.75711C11.8938 5.22997 12.337 4.78677 12.8642 4.46374L11.8192 2.75846ZM11.0358 8.18382C11.1012 6.92511 11.2649 6.2563 11.5708 5.75711L9.86551 4.71211C9.29006 5.65116 9.10834 6.73657 9.03846 8.07992L11.0358 8.18382ZM24.4517 20.5863C25.4575 20.5529 26.2701 20.4627 27.0108 20.1559L26.2455 18.3081C25.8523 18.471 25.3406 18.5557 24.3853 18.5874L24.4517 20.5863Z" fill="white"/>
  <path d="M9.34863 17.3114H9.36043M13.9262 17.3114H13.938M18.5042 17.3114H18.516" stroke="white" stroke-width="2" stroke-linecap="round" stroke-linejoin="round"/>
</svg>
