<svg xmlns="http://www.w3.org/2000/svg" width="25" height="24" viewBox="0 0 25 24" fill="none">
  <path d="M16.9005 13.359L16.3717 12.8272H16.3717L16.9005 13.359ZM17.356 12.9062L17.8848 13.438H17.8848L17.356 12.9062ZM19.7726 12.5894L19.4144 13.2483L19.7726 12.5894ZM21.6831 13.628L21.3249 14.2869L21.6831 13.628ZM22.2215 16.883L22.7503 17.4148L22.2215 16.883ZM20.8009 18.2954L20.2721 17.7636L20.8009 18.2954ZM19.4761 18.9651L19.5457 19.7119H19.5457L19.4761 18.9651ZM9.61516 14.7266L10.144 14.1947L9.61516 14.7266ZM4.80269 5.74561L4.0539 5.78816L4.0539 5.78816L4.80269 5.74561ZM11.2773 7.19738L11.8061 7.72922H11.8061L11.2773 7.19738ZM11.434 4.54348L12.0344 4.09401L11.434 4.54348ZM10.1731 2.85908L9.57266 3.30855V3.30855L10.1731 2.85908ZM7.06125 2.57483L7.59007 3.10667H7.59007L7.06125 2.57483ZM5.49165 4.13552L4.96284 3.60368H4.96284L5.49165 4.13552ZM12.8629 11.4972L13.3917 10.9654L12.8629 11.4972ZM17.4293 13.8909L17.8848 13.438L16.8271 12.3743L16.3717 12.8272L17.4293 13.8909ZM19.4144 13.2483L21.3249 14.2869L22.0413 12.9691L20.1308 11.9305L19.4144 13.2483ZM21.6927 16.3511L20.2721 17.7636L21.3297 18.8273L22.7503 17.4148L21.6927 16.3511ZM19.4065 18.2184C17.9566 18.3535 14.2054 18.2331 10.144 14.1947L9.08635 15.2584C13.5185 19.6653 17.7367 19.8805 19.5457 19.7119L19.4065 18.2184ZM10.144 14.1947C6.27261 10.3453 5.63131 7.10765 5.55148 5.70305L4.0539 5.78816C4.15437 7.55599 4.94843 11.144 9.08635 15.2584L10.144 14.1947ZM11.5193 8.01441L11.8061 7.72922L10.7485 6.66555L10.4617 6.95073L11.5193 8.01441ZM12.0344 4.09401L10.7735 2.40961L9.57266 3.30855L10.8337 4.99296L12.0344 4.09401ZM6.53244 2.04299L4.96284 3.60368L6.02047 4.66736L7.59007 3.10667L6.53244 2.04299ZM10.9905 7.48257C10.4617 6.95073 10.461 6.95144 10.4603 6.95216C10.46 6.9524 10.4593 6.95313 10.4588 6.95362C10.4578 6.95461 10.4568 6.95561 10.4558 6.95664C10.4538 6.95871 10.4517 6.96086 10.4495 6.9631C10.4452 6.96759 10.4406 6.97245 10.4358 6.97769C10.4261 6.98816 10.4156 7.00014 10.4042 7.01367C10.3815 7.04072 10.3559 7.07403 10.3289 7.11388C10.2747 7.19377 10.2157 7.2994 10.1657 7.43224C10.0636 7.70329 10.0088 8.0606 10.0775 8.50305C10.2117 9.36833 10.8076 10.5113 12.3341 12.0291L13.3917 10.9654C11.9632 9.54499 11.6229 8.68059 11.5597 8.27309C11.5296 8.07916 11.5608 7.98371 11.5694 7.96111C11.5746 7.94713 11.5771 7.9457 11.5707 7.95525C11.5675 7.95992 11.5622 7.96723 11.5539 7.97708C11.5498 7.98201 11.5449 7.98759 11.5392 7.99381C11.5363 7.99692 11.5333 8.00019 11.5299 8.00362C11.5283 8.00534 11.5266 8.00709 11.5248 8.00889C11.5239 8.00979 11.523 8.0107 11.5221 8.01162C11.5217 8.01208 11.521 8.01278 11.5207 8.01301C11.52 8.01371 11.5193 8.01441 10.9905 7.48257ZM12.3341 12.0291C13.8611 13.5474 15.0094 14.1383 15.8761 14.2713C16.319 14.3392 16.6761 14.285 16.947 14.1841C17.0798 14.1346 17.1856 14.0763 17.2656 14.0227C17.3056 13.9959 17.339 13.9704 17.3661 13.9479C17.3797 13.9367 17.3917 13.9262 17.4022 13.9166C17.4075 13.9118 17.4124 13.9073 17.4169 13.903C17.4192 13.9008 17.4213 13.8987 17.4234 13.8967C17.4244 13.8957 17.4254 13.8947 17.4264 13.8937C17.4269 13.8932 17.4277 13.8925 17.4279 13.8923C17.4286 13.8916 17.4293 13.8909 16.9005 13.359C16.3717 12.8272 16.3724 12.8265 16.3731 12.8258C16.3733 12.8256 16.374 12.8249 16.3745 12.8244C16.3754 12.8235 16.3763 12.8226 16.3772 12.8217C16.3791 12.82 16.3808 12.8183 16.3825 12.8166C16.386 12.8133 16.3893 12.8103 16.3924 12.8074C16.3986 12.8018 16.4042 12.7969 16.4092 12.7929C16.419 12.7847 16.4263 12.7795 16.4308 12.7764C16.4402 12.7702 16.4382 12.773 16.4234 12.7785C16.3989 12.7876 16.3008 12.8189 16.1036 12.7886C15.6903 12.7253 14.8198 12.3853 13.3917 10.9654L12.3341 12.0291ZM10.7735 2.40961C9.75414 1.04802 7.74977 0.83257 6.53244 2.04299L7.59007 3.10667C8.12176 2.578 9.06604 2.63181 9.57266 3.30855L10.7735 2.40961ZM5.55148 5.70305C5.53181 5.35694 5.69055 4.9954 6.02047 4.66736L4.96284 3.60368C4.42552 4.13795 4.0031 4.89425 4.0539 5.78816L5.55148 5.70305ZM20.2721 17.7636C19.9973 18.0369 19.7027 18.1908 19.4065 18.2184L19.5457 19.7119C20.2803 19.6434 20.8822 19.2723 21.3297 18.8273L20.2721 17.7636ZM11.8061 7.72922C12.7906 6.7503 12.8638 5.2019 12.0344 4.09401L10.8337 4.99295C11.2371 5.53193 11.1771 6.23938 10.7485 6.66555L11.8061 7.72922ZM21.3249 14.2869C22.1427 14.7315 22.2701 15.7769 21.6927 16.3511L22.7503 17.4148C24.0906 16.0821 23.6773 13.8584 22.0413 12.9691L21.3249 14.2869ZM17.8848 13.438C18.2688 13.0562 18.8869 12.9616 19.4144 13.2483L20.1308 11.9305C19.0472 11.3414 17.7024 11.5041 16.8271 12.3743L17.8848 13.438Z" fill="white"/>
</svg>
