<svg xmlns="http://www.w3.org/2000/svg" width="25" height="24" viewBox="0 0 25 24" fill="none">
  <path d="M2.7998 16.9C2.7998 15.5906 2.7998 14.9359 3.09452 14.455C3.25944 14.1859 3.4857 13.9596 3.75481 13.7947C4.23575 13.5 4.89043 13.5 6.1998 13.5H7.2998C9.18542 13.5 10.1282 13.5 10.714 14.0858C11.2998 14.6716 11.2998 15.6144 11.2998 17.5V18.6C11.2998 19.9094 11.2998 20.5641 11.0051 21.045C10.8402 21.3141 10.6139 21.5404 10.3448 21.7053C9.86386 22 9.20918 22 7.8998 22C5.93575 22 4.95372 22 4.23231 21.5579C3.82864 21.3106 3.48925 20.9712 3.24188 20.5675C2.7998 19.8461 2.7998 18.8641 2.7998 16.9Z" stroke="white" stroke-width="1.5"/>
  <path d="M14.2998 5.4C14.2998 4.09063 14.2998 3.43594 14.5945 2.955C14.7594 2.68589 14.9857 2.45963 15.2548 2.29472C15.7357 2 16.3904 2 17.6998 2C19.6639 2 20.6459 2 21.3673 2.44208C21.771 2.68945 22.1104 3.02884 22.3577 3.4325C22.7998 4.15391 22.7998 5.13594 22.7998 7.1C22.7998 8.40937 22.7998 9.06406 22.5051 9.545C22.3402 9.81411 22.1139 10.0404 21.8448 10.2053C21.3639 10.5 20.7092 10.5 19.3998 10.5H18.2998C16.4142 10.5 15.4714 10.5 14.8856 9.91421C14.2998 9.32843 14.2998 8.38562 14.2998 6.5V5.4Z" stroke="white" stroke-width="1.5"/>
  <path d="M17.2998 6.25C17.2998 5.73459 17.2998 5.47689 17.4289 5.29493C17.4745 5.23072 17.5305 5.17466 17.5947 5.12911C17.7767 5 18.0344 5 18.5498 5C19.0652 5 19.3229 5 19.5049 5.12911C19.5691 5.17466 19.6251 5.23072 19.6707 5.29493C19.7998 5.47689 19.7998 5.73459 19.7998 6.25C19.7998 6.76541 19.7998 7.02311 19.6707 7.20507C19.6251 7.26928 19.5691 7.32534 19.5049 7.37089C19.3229 7.5 19.0652 7.5 18.5498 7.5C18.0344 7.5 17.7767 7.5 17.5947 7.37089C17.5305 7.32534 17.4745 7.26928 17.4289 7.20507C17.2998 7.02311 17.2998 6.76541 17.2998 6.25Z" fill="white"/>
  <path d="M13.5498 22C13.5498 22.4142 13.8856 22.75 14.2998 22.75C14.714 22.75 15.0498 22.4142 15.0498 22H13.5498ZM15.1887 13.8371L15.6053 14.4607L15.6053 14.4607L15.1887 13.8371ZM14.6369 14.3889L14.0133 13.9722L14.0133 13.9722L14.6369 14.3889ZM19.7998 12.75H17.7998V14.25H19.7998V12.75ZM13.5498 19V22H15.0498V19H13.5498ZM17.7998 12.75C17.1132 12.75 16.5418 12.7491 16.0808 12.796C15.6074 12.8441 15.168 12.9489 14.772 13.2135L15.6053 14.4607C15.7138 14.3882 15.8778 14.3244 16.2326 14.2883C16.6 14.2509 17.082 14.25 17.7998 14.25V12.75ZM15.0498 17C15.0498 16.2822 15.0507 15.8002 15.0881 15.4328C15.1242 15.078 15.188 14.914 15.2605 14.8055L14.0133 13.9722C13.7487 14.3682 13.644 14.8075 13.5958 15.281C13.5489 15.742 13.5498 16.3134 13.5498 17H15.0498ZM14.772 13.2135C14.4717 13.4141 14.2139 13.6719 14.0133 13.9722L15.2605 14.8055C15.3517 14.669 15.4689 14.5519 15.6053 14.4607L14.772 13.2135Z" fill="white"/>
  <path d="M23.5498 13.5C23.5498 13.0858 23.214 12.75 22.7998 12.75C22.3856 12.75 22.0498 13.0858 22.0498 13.5H23.5498ZM21.5652 21.8478L21.8522 22.5407L21.8522 22.5407L21.5652 21.8478ZM22.6476 20.7654L21.9547 20.4784L21.9547 20.4784L22.6476 20.7654ZM17.7998 22.75H19.7998V21.25H17.7998V22.75ZM23.5498 17V13.5H22.0498V17H23.5498ZM19.7998 22.75C20.2555 22.75 20.6348 22.7504 20.9452 22.7292C21.2623 22.7076 21.5618 22.661 21.8522 22.5407L21.2782 21.1548C21.201 21.1868 21.0838 21.2163 20.8431 21.2327C20.5956 21.2496 20.276 21.25 19.7998 21.25V22.75ZM22.0498 19C22.0498 19.4762 22.0494 19.7958 22.0325 20.0433C22.0161 20.284 21.9866 20.4012 21.9547 20.4784L23.3405 21.0524C23.4608 20.762 23.5074 20.4625 23.529 20.1454C23.5502 19.835 23.5498 19.4557 23.5498 19H22.0498ZM21.8522 22.5407C22.526 22.2616 23.0614 21.7262 23.3405 21.0524L21.9547 20.4784C21.8278 20.7846 21.5844 21.028 21.2782 21.1548L21.8522 22.5407Z" fill="white"/>
  <path d="M2.7998 7.1C2.7998 5.13594 2.7998 4.15391 3.24188 3.4325C3.48925 3.02884 3.82864 2.68945 4.23231 2.44208C4.95372 2 5.93575 2 7.89981 2C9.20918 2 9.86386 2 10.3448 2.29472C10.6139 2.45963 10.8402 2.68589 11.0051 2.955C11.2998 3.43594 11.2998 4.09063 11.2998 5.4V6.5C11.2998 8.38562 11.2998 9.32843 10.714 9.91421C10.1282 10.5 9.18542 10.5 7.2998 10.5H6.19981C4.89043 10.5 4.23575 10.5 3.75481 10.2053C3.4857 10.0404 3.25944 9.81411 3.09452 9.545C2.7998 9.06406 2.7998 8.40937 2.7998 7.1Z" stroke="white" stroke-width="1.5"/>
  <path d="M5.7998 6.25C5.7998 5.73459 5.7998 5.47689 5.92891 5.29493C5.97447 5.23072 6.03053 5.17466 6.09473 5.12911C6.27669 5 6.5344 5 7.0498 5C7.56521 5 7.82291 5 8.00487 5.12911C8.06908 5.17466 8.12514 5.23072 8.1707 5.29493C8.2998 5.47689 8.2998 5.73459 8.2998 6.25C8.2998 6.76541 8.2998 7.02311 8.1707 7.20507C8.12514 7.26928 8.06908 7.32534 8.00487 7.37089C7.82291 7.5 7.56521 7.5 7.0498 7.5C6.5344 7.5 6.27669 7.5 6.09473 7.37089C6.03053 7.32534 5.97447 7.26928 5.92891 7.20507C5.7998 7.02311 5.7998 6.76541 5.7998 6.25Z" fill="white"/>
  <path d="M5.7998 17.75C5.7998 17.2346 5.7998 16.9769 5.92891 16.7949C5.97447 16.7307 6.03053 16.6747 6.09473 16.6291C6.27669 16.5 6.5344 16.5 7.0498 16.5C7.56521 16.5 7.82291 16.5 8.00487 16.6291C8.06908 16.6747 8.12514 16.7307 8.1707 16.7949C8.2998 16.9769 8.2998 17.2346 8.2998 17.75C8.2998 18.2654 8.2998 18.5231 8.1707 18.7051C8.12514 18.7693 8.06908 18.8253 8.00487 18.8709C7.82291 19 7.56521 19 7.0498 19C6.5344 19 6.27669 19 6.09473 18.8709C6.03053 18.8253 5.97447 18.7693 5.92891 18.7051C5.7998 18.5231 5.7998 18.2654 5.7998 17.75Z" fill="white"/>
  <path d="M16.7998 17.75C16.7998 17.0478 16.7998 16.6967 16.9683 16.4444C17.0413 16.3352 17.135 16.2415 17.2442 16.1685C17.4965 16 17.8476 16 18.5498 16C19.252 16 19.6032 16 19.8554 16.1685C19.9646 16.2415 20.0583 16.3352 20.1313 16.4444C20.2998 16.6967 20.2998 17.0478 20.2998 17.75C20.2998 18.4522 20.2998 18.8033 20.1313 19.0556C20.0583 19.1648 19.9646 19.2585 19.8554 19.3315C19.6032 19.5 19.252 19.5 18.5498 19.5C17.8476 19.5 17.4965 19.5 17.2442 19.3315C17.135 19.2585 17.0413 19.1648 16.9683 19.0556C16.7998 18.8033 16.7998 18.4522 16.7998 17.75Z" fill="white"/>
</svg>
