<svg xmlns="http://www.w3.org/2000/svg" width="21" height="20" viewBox="0 0 21 20" fill="none">
  <path d="M8.42777 4.50694C9.48331 2.6134 10.0111 1.66663 10.8001 1.66663C11.5892 1.66663 12.117 2.6134 13.1725 4.50694L13.4456 4.99682C13.7455 5.53491 13.8955 5.80395 14.1293 5.98147C14.3632 6.15898 14.6544 6.22488 15.2369 6.35667L15.7672 6.47665C17.8169 6.94042 18.8418 7.17231 19.0856 7.9564C19.3294 8.7405 18.6308 9.55752 17.2334 11.1916L16.8719 11.6143C16.4748 12.0787 16.2762 12.3108 16.1869 12.5981C16.0976 12.8853 16.1276 13.1951 16.1876 13.8146L16.2423 14.3786C16.4536 16.5588 16.5592 17.6489 15.9208 18.1335C15.2825 18.6181 14.3229 18.1762 12.4037 17.2926L11.9072 17.064C11.3619 16.8129 11.0892 16.6873 10.8001 16.6873C10.5111 16.6873 10.2384 16.8129 9.69304 17.064L9.19653 17.2926C7.27736 18.1762 6.31778 18.6181 5.67942 18.1335C5.04106 17.6489 5.1467 16.5588 5.35796 14.3786L5.41262 13.8146C5.47265 13.1951 5.50267 12.8853 5.41335 12.5981C5.32403 12.3108 5.12549 12.0787 4.7284 11.6143L4.36688 11.1916C2.9695 9.55752 2.27082 8.7405 2.51465 7.9564C2.75848 7.17231 3.78334 6.94042 5.83308 6.47665L6.36337 6.35667C6.94584 6.22488 7.23707 6.15898 7.47092 5.98147C7.70476 5.80395 7.85473 5.53491 8.15469 4.99682L8.42777 4.50694Z" fill="#F4AA2A" stroke="#F4AA2A" stroke-width="1.5"/>
</svg>
