<svg width="25" height="25" viewBox="0 0 25 25" fill="none" xmlns="http://www.w3.org/2000/svg">
<rect x="0.799805" y="0.466309" width="24" height="24" rx="12" fill="black"/>
<path d="M15.6741 10.4397C16.6115 11.1121 17.7599 11.5078 19.0002 11.5078V9.11263C18.7654 9.11268 18.5313 9.08811 18.3017 9.03929V10.9246C17.0615 10.9246 15.9133 10.529 14.9757 9.85653V14.7444C14.9757 17.1895 13.0005 19.1715 10.5642 19.1715C9.65519 19.1715 8.81027 18.8957 8.1084 18.4227C8.90947 19.2447 10.0266 19.7546 11.2626 19.7546C13.699 19.7546 15.6742 17.7726 15.6742 15.3274V10.4397H15.6741ZM16.5358 8.02323C16.0567 7.49799 15.7422 6.81922 15.6741 6.06881V5.76074H15.0122C15.1788 6.71451 15.7471 7.52936 16.5358 8.02323ZM9.64936 16.5464C9.3817 16.1942 9.23706 15.7634 9.23771 15.3204C9.23771 14.2021 10.1411 13.2953 11.2557 13.2953C11.4634 13.2953 11.6699 13.3272 11.8678 13.3902V10.9415C11.6365 10.9097 11.403 10.8962 11.1696 10.9012V12.8071C10.9715 12.7441 10.765 12.712 10.5572 12.7122C9.44264 12.7122 8.53928 13.6189 8.53928 14.7374C8.53928 15.5282 8.99083 16.2129 9.64936 16.5464Z" fill="#FF004F"/>
<path d="M14.9752 9.85648C15.9128 10.5289 17.061 10.9246 18.3012 10.9246V9.03924C17.6089 8.89125 16.9961 8.52821 16.5353 8.02323C15.7466 7.52931 15.1783 6.71446 15.0117 5.76074H13.2731V15.3273C13.2691 16.4425 12.3673 17.3456 11.2551 17.3456C10.5997 17.3456 10.0175 17.0321 9.64871 16.5464C8.99023 16.2129 8.53868 15.5281 8.53868 14.7374C8.53868 13.619 9.44204 12.7123 10.5566 12.7123C10.7702 12.7123 10.976 12.7457 11.169 12.8071V10.9012C8.77554 10.9508 6.85059 12.9135 6.85059 15.3273C6.85059 16.5323 7.32994 17.6246 8.10795 18.4228C8.80982 18.8957 9.65474 19.1716 10.5638 19.1716C13.0001 19.1716 14.9752 17.1894 14.9752 14.7444V9.85648H14.9752Z" fill="white"/>
<path d="M18.3014 9.0393V8.52952C17.6771 8.53047 17.0651 8.35502 16.5355 8.02324C17.0043 8.53837 17.6217 8.89357 18.3014 9.0393ZM15.0119 5.7608C14.996 5.66965 14.9838 5.5779 14.9754 5.4858V5.17773H12.5747V14.7444C12.5709 15.8595 11.6691 16.7625 10.5568 16.7625C10.2303 16.7625 9.92194 16.6847 9.6489 16.5465C10.0177 17.0321 10.5999 17.3456 11.2553 17.3456C12.3674 17.3456 13.2694 16.4426 13.2733 15.3274V5.7608H15.0119ZM11.1693 10.9013V10.3586C10.9687 10.3311 10.7665 10.3172 10.564 10.3173C8.12747 10.3173 6.15234 12.2994 6.15234 14.7444C6.15234 16.2772 6.9286 17.6281 8.10819 18.4227C7.33019 17.6246 6.85083 16.5322 6.85083 15.3273C6.85083 12.9136 8.77573 10.9509 11.1693 10.9013Z" fill="#00F2EA"/>
</svg>
