<svg width="25" height="25" viewBox="0 0 25 25" fill="none" xmlns="http://www.w3.org/2000/svg">
<rect x="0.799805" y="0.466309" width="24" height="24" rx="12" fill="url(#paint0_linear_4958_66732)"/>
<path d="M5.52051 19.4482L6.54944 15.7118C5.91331 14.6151 5.5796 13.3731 5.58308 12.1034C5.58308 8.12487 8.83673 4.89014 12.8308 4.89014C14.7705 4.89014 16.592 5.64087 17.9581 7.00396C19.3277 8.36704 20.082 10.1799 20.0785 12.1069C20.0785 16.0854 16.8249 19.3202 12.8273 19.3202H12.8239C11.6107 19.3202 10.4184 19.0157 9.35815 18.4414L5.52051 19.4482ZM9.54239 17.1372L9.76138 17.2686C10.686 17.8152 11.7463 18.1024 12.8273 18.1058H12.8308C16.1505 18.1058 18.8549 15.4177 18.8549 12.1103C18.8549 10.5085 18.2292 9.00361 17.0925 7.86886C15.9558 6.73411 14.4402 6.11138 12.8308 6.11138C9.5111 6.10792 6.80667 8.79603 6.80667 12.1034C6.80667 13.2347 7.123 14.3383 7.72785 15.2932L7.87037 15.5215L7.26205 17.7322L9.54239 17.1372Z" fill="white"/>
<path d="M5.77441 19.1955L6.76859 15.5871C6.15331 14.532 5.83003 13.3315 5.83003 12.1068C5.83351 8.26661 8.97245 5.14258 12.831 5.14258C14.7046 5.14258 16.46 5.8691 17.781 7.18375C19.1019 8.4984 19.8284 10.249 19.8284 12.1102C19.8284 15.9504 16.686 19.0744 12.831 19.0744H12.8275C11.656 19.0744 10.5054 18.7804 9.48344 18.2268L5.77441 19.1955Z" fill="url(#paint1_linear_4958_66732)"/>
<path d="M5.52051 19.4482L6.54944 15.7118C5.91331 14.6151 5.5796 13.3731 5.58308 12.1034C5.58308 8.12487 8.83673 4.89014 12.8308 4.89014C14.7705 4.89014 16.592 5.64087 17.9581 7.00396C19.3277 8.36704 20.082 10.1799 20.0785 12.1069C20.0785 16.0854 16.8249 19.3202 12.8273 19.3202H12.8239C11.6107 19.3202 10.4184 19.0157 9.35815 18.4414L5.52051 19.4482ZM9.54239 17.1372L9.76138 17.2686C10.686 17.8152 11.7463 18.1024 12.8273 18.1058H12.8308C16.1505 18.1058 18.8549 15.4177 18.8549 12.1103C18.8549 10.5085 18.2292 9.00361 17.0925 7.86886C15.9558 6.73411 14.4402 6.11138 12.8308 6.11138C9.5111 6.10792 6.80667 8.79603 6.80667 12.1034C6.80667 13.2347 7.123 14.3383 7.72785 15.2932L7.87037 15.5215L7.26205 17.7322L9.54239 17.1372Z" fill="url(#paint2_linear_4958_66732)"/>
<path fill-rule="evenodd" clip-rule="evenodd" d="M11.0196 9.08631C10.884 8.78532 10.7415 8.7784 10.6129 8.77494C10.5086 8.77148 10.3869 8.77148 10.2653 8.77148C10.1436 8.77148 9.94892 8.81646 9.78207 8.99636C9.61522 9.17626 9.14941 9.61217 9.14941 10.5013C9.14941 11.3869 9.79945 12.2449 9.88983 12.366C9.98021 12.4871 11.1447 14.3657 12.9836 15.0887C14.5131 15.6907 14.8259 15.5696 15.1562 15.5385C15.4864 15.5073 16.2268 15.1026 16.3798 14.6805C16.5292 14.2584 16.5292 13.8986 16.484 13.8225C16.4389 13.7464 16.3172 13.7014 16.1364 13.6115C15.9557 13.5215 15.0658 13.0856 14.8989 13.0233C14.7321 12.9645 14.6104 12.9334 14.4922 13.1133C14.3706 13.2932 14.0229 13.698 13.9187 13.8191C13.8144 13.9401 13.7066 13.954 13.5259 13.864C13.3451 13.7741 12.7611 13.5838 12.0694 12.968C11.5306 12.4906 11.1656 11.899 11.0613 11.7191C10.957 11.5392 11.0509 11.4423 11.1412 11.3524C11.2212 11.2728 11.322 11.1413 11.4124 11.0375C11.5028 10.9337 11.534 10.8576 11.5931 10.7365C11.6522 10.6155 11.6244 10.5117 11.5792 10.4217C11.534 10.3352 11.1795 9.44265 11.0196 9.08631Z" fill="white"/>
<defs>
<linearGradient id="paint0_linear_4958_66732" x1="12.7992" y1="24.4651" x2="12.7992" y2="0.465469" gradientUnits="userSpaceOnUse">
<stop stop-color="#20B038"/>
<stop offset="1" stop-color="#60D66A"/>
</linearGradient>
<linearGradient id="paint1_linear_4958_66732" x1="12.801" y1="19.1948" x2="12.801" y2="5.14209" gradientUnits="userSpaceOnUse">
<stop stop-color="#20B038"/>
<stop offset="1" stop-color="#60D66A"/>
</linearGradient>
<linearGradient id="paint2_linear_4958_66732" x1="12.8009" y1="19.4468" x2="12.8009" y2="4.89014" gradientUnits="userSpaceOnUse">
<stop stop-color="#F9F9F9"/>
<stop offset="1" stop-color="white"/>
</linearGradient>
</defs>
</svg>
