<svg width="25" height="25" viewBox="0 0 25 25" fill="none" xmlns="http://www.w3.org/2000/svg">
<rect x="0.799805" y="0.466309" width="24" height="24" rx="12" fill="#FF0000"/>
<path d="M20.3663 8.67161C20.1842 7.99552 19.6512 7.46245 18.9751 7.28043C17.7399 6.94238 12.7993 6.94238 12.7993 6.94238C12.7993 6.94238 7.85862 6.94238 6.62345 7.26743C5.96037 7.44945 5.41429 7.99552 5.23227 8.67161C4.90723 9.90677 4.90723 12.4681 4.90723 12.4681C4.90723 12.4681 4.90723 15.0425 5.23227 16.2646C5.41429 16.9407 5.94736 17.4738 6.62345 17.6558C7.87162 17.9938 12.7993 17.9938 12.7993 17.9938C12.7993 17.9938 17.7399 17.9938 18.9751 17.6688C19.6512 17.4868 20.1842 16.9537 20.3663 16.2776C20.6913 15.0425 20.6913 12.4811 20.6913 12.4811C20.6913 12.4811 20.7043 9.90677 20.3663 8.67161Z" fill="white"/>
<path d="M11.2266 14.8342L15.3351 12.4679L11.2266 10.1016V14.8342Z" fill="#FF0000"/>
</svg>
